<svg xmlns="http://www.w3.org/2000/svg" xmlns:xlink="http://www.w3.org/1999/xlink" width="275" height="63.462" viewBox="0 0 275 63.462">
  <defs>
    <linearGradient id="linear-gradient" x1="1.077" y1="0.651" x2="-0.317" y2="0.221" gradientUnits="objectBoundingBox">
      <stop offset="0" stop-color="#46bbc5"/>
      <stop offset="0.156" stop-color="#40b1bf"/>
      <stop offset="0.418" stop-color="#3097af"/>
      <stop offset="0.752" stop-color="#166d97"/>
      <stop offset="1" stop-color="#004a82"/>
    </linearGradient>
    <linearGradient id="linear-gradient-2" y1="0.5" x2="1" y2="0.5" gradientUnits="objectBoundingBox">
      <stop offset="0" stop-color="#ffa800"/>
      <stop offset="0.991" stop-color="#ef5713"/>
    </linearGradient>
  </defs>
  <g id="Group_11" data-name="Group 11" transform="translate(-257 -127)">
    <g id="Group_10" data-name="Group 10" transform="translate(257 127)">
      <g id="Group_1" data-name="Group 1" transform="translate(79.182)">
        <path id="Path_1" data-name="Path 1" d="M579.668,212.359c-.061-.96-.047-1.749-.171-2.515a4.077,4.077,0,0,0-3.2-3.433,11.607,11.607,0,0,0-8.82,1.2c-.345.185-.673.4-1,.6a4.64,4.64,0,0,1-2.779-3.88,13.235,13.235,0,0,1,5.015-2.731,16.518,16.518,0,0,1,10.836.107,8.625,8.625,0,0,1,5.867,7.674,30.207,30.207,0,0,1,.162,3.345c.019,3.778.007,7.557.007,11.334v1.109c-.861.338-1.708.715-2.584,1.007a28.734,28.734,0,0,1-11.06,1.425,13.268,13.268,0,0,1-5.223-1.328,7.281,7.281,0,0,1-4.028-7.639c.327-3.391,2.4-5.334,5.434-6.448a15.381,15.381,0,0,1,5.523-.782A18.8,18.8,0,0,1,579.668,212.359Zm-.053,4.434c-.205-.1-.336-.177-.475-.228a15.141,15.141,0,0,0-6.412-.75,7.246,7.246,0,0,0-1.925.422,2.894,2.894,0,0,0-2.017,2.644,3.11,3.11,0,0,0,1.327,3,6.586,6.586,0,0,0,2.131.922,14.83,14.83,0,0,0,7.3-.572,2.628,2.628,0,0,0,.069-.4C579.616,220.169,579.615,218.511,579.615,216.792Z" transform="translate(-389.771 -189.929)" fill="#003f59"/>
        <path id="Path_2" data-name="Path 2" d="M372.951,215.826H355.062a8.965,8.965,0,0,0,.979,3.283,6.453,6.453,0,0,0,5.5,3.434,11.468,11.468,0,0,0,7.758-2.2c.123-.087.25-.17.378-.249a1.852,1.852,0,0,1,.213-.091,6.385,6.385,0,0,1,2.585,4.016,10.715,10.715,0,0,1-2.681,1.808,16.318,16.318,0,0,1-12.216,1.218,11.271,11.271,0,0,1-8.013-7.913,15.152,15.152,0,0,1,.2-10.033,12.61,12.61,0,0,1,18.924-6.183,10.317,10.317,0,0,1,4.321,7.058A18.4,18.4,0,0,1,372.951,215.826Zm-5.759-4.046a5.427,5.427,0,0,0-3.813-5.83,6.859,6.859,0,0,0-3.211-.116,6.3,6.3,0,0,0-4.948,5.945Z" transform="translate(-348.809 -189.928)" fill="#003f59"/>
        <path id="Path_3" data-name="Path 3" d="M470.124,215.844H452.289a6.8,6.8,0,0,0,6.025,6.687,11.42,11.42,0,0,0,7.6-1.81c.353-.231.7-.467,1.1-.734a6.262,6.262,0,0,1,2.625,4.089,15.013,15.013,0,0,1-4.885,2.707,16.428,16.428,0,0,1-10.409.15,11.319,11.319,0,0,1-7.6-7.763,15.044,15.044,0,0,1,.218-10.119,12.647,12.647,0,0,1,19.165-5.928,10.335,10.335,0,0,1,4.053,6.833A18.361,18.361,0,0,1,470.124,215.844Zm-17.78-4.058h12.044a5.706,5.706,0,0,0-1.472-4.365A5.775,5.775,0,0,0,456.748,206,6.38,6.38,0,0,0,452.344,211.786Z" transform="translate(-367.422 -189.938)" fill="#003f59"/>
        <path id="Path_4" data-name="Path 4" d="M506.621,226.808a15.544,15.544,0,0,1-6.036.014v-.939c0-4.233.016-8.467-.014-12.7a15.668,15.668,0,0,0-.284-2.787,4.584,4.584,0,0,0-4.06-3.942,11.576,11.576,0,0,0-7.14,1.053,2.146,2.146,0,0,0-.29.241v19.109a18.008,18.008,0,0,1-6.088.015v-22.13c.4-.289.84-.648,1.319-.95a19.547,19.547,0,0,1,8.2-2.883,17.707,17.707,0,0,1,7.7.559,9.338,9.338,0,0,1,6.661,9.057c.083,5.261.028,10.523.032,15.784Z" transform="translate(-374.459 -189.929)" fill="#003f59"/>
        <path id="Path_5" data-name="Path 5" d="M383.621,224.536a6.3,6.3,0,0,1,2.73-4.147c.39.242.791.505,1.206.745a12.2,12.2,0,0,0,9.155,1.4,2.742,2.742,0,0,0,2.257-2.094,2.1,2.1,0,0,0-.816-2.4,6.516,6.516,0,0,0-2.03-.935c-1.693-.424-3.417-.715-5.122-1.094a11.128,11.128,0,0,1-3.749-1.516,6.408,6.408,0,0,1-2.952-6.121c.209-3.707,2.506-5.738,5.77-6.858a16.017,16.017,0,0,1,6.974-.637,18.815,18.815,0,0,1,5.592,1.362c.6.262,1.168.6,1.775.922a6.173,6.173,0,0,1-2.183,4.341c-.989-.39-1.9-.787-2.831-1.108a14.345,14.345,0,0,0-5.708-.715,7.7,7.7,0,0,0-1.932.427,2.194,2.194,0,0,0-1.64,2.146,2.123,2.123,0,0,0,1.568,2.188,32.375,32.375,0,0,0,3.128.855c1.609.386,3.233.709,4.836,1.116a8.5,8.5,0,0,1,1.662.7c3.017,1.51,4.218,4.182,3.644,7.623-.611,3.662-3.063,5.586-6.41,6.453a18.892,18.892,0,0,1-11.558-.7A10.7,10.7,0,0,1,383.621,224.536Z" transform="translate(-355.478 -189.935)" fill="#003f59"/>
        <path id="Path_6" data-name="Path 6" d="M414.7,224.542a6.113,6.113,0,0,1,2.774-4.15,12.193,12.193,0,0,0,4.265,2.052,11.838,11.838,0,0,0,6,.106,5.154,5.154,0,0,0,1.23-.547,2.487,2.487,0,0,0-.074-4.221,13.046,13.046,0,0,0-3.957-1.208,22.558,22.558,0,0,1-5.155-1.3,6.626,6.626,0,0,1-4.089-4.2,7.162,7.162,0,0,1,2.614-8.128,11.854,11.854,0,0,1,5.724-2.042,19.555,19.555,0,0,1,8.734.975,30.247,30.247,0,0,1,2.774,1.267,6.7,6.7,0,0,1-2.252,4.373c-.21-.08-.409-.137-.591-.227a15.244,15.244,0,0,0-7.976-1.6,7.312,7.312,0,0,0-2.093.515,2.11,2.11,0,0,0-1.45,2,2.028,2.028,0,0,0,1.362,2.137,21.07,21.07,0,0,0,3.287.947,32.494,32.494,0,0,1,5.351,1.289,9.324,9.324,0,0,1,3.019,1.789,6.241,6.241,0,0,1,1.967,4.8,7.619,7.619,0,0,1-2.122,5.608,8.953,8.953,0,0,1-4.388,2.419,19.107,19.107,0,0,1-12.313-1A9.2,9.2,0,0,1,414.7,224.542Z" transform="translate(-361.431 -189.937)" fill="#003f59"/>
        <path id="Path_7" data-name="Path 7" d="M536.09,219.273a6.271,6.271,0,0,1,2.541,4.217,11.353,11.353,0,0,1-6.658,2.69,12.663,12.663,0,0,1-5.44-.688,7.05,7.05,0,0,1-4.825-6.21,31.166,31.166,0,0,1-.167-3.344c-.022-3.175-.008-6.349-.008-9.524v-1.05h-4.28a12.085,12.085,0,0,1-.028-4.9h4.29v-6.743a14.868,14.868,0,0,1,5.987-.053v6.762h9.522a10.332,10.332,0,0,1,.01,4.9h-9.45c-.023.3-.051.5-.051.7,0,3.357-.028,6.713.016,10.068a9.806,9.806,0,0,0,.391,2.578,2.953,2.953,0,0,0,2.292,2.1,6.3,6.3,0,0,0,5.247-1.044C535.675,219.6,535.859,219.45,536.09,219.273Z" transform="translate(-381.025 -188.522)" fill="#003f59"/>
        <path id="Path_8" data-name="Path 8" d="M554.724,227.018a19.092,19.092,0,0,1-6.03-.024V201.662a16.042,16.042,0,0,1,6.03,0Z" transform="translate(-387.099 -190.052)" fill="#003f59"/>
        <path id="Path_9" data-name="Path 9" d="M555.347,191.279a3.855,3.855,0,0,1-3.877,3.821,3.866,3.866,0,1,1,.085-7.73A3.852,3.852,0,0,1,555.347,191.279Z" transform="translate(-386.878 -187.369)" fill="#003f59"/>
      </g>
      <g id="Group_8" data-name="Group 8" transform="translate(0 1.84)">
        <g id="Group_4" data-name="Group 4" transform="translate(0)">
          <g id="Group_3" data-name="Group 3">
            <g id="Group_2" data-name="Group 2">
              <path id="Path_10" data-name="Path 10" d="M309.895,198.143c-2.907-2.6-13.088-8.5-31.1-8.5-15.3,0-27.928,6.1-27.928,14.151,0,3.369,2.178,6.1,5.692,8.5-.445-.334-3.6-3.43-3.6-5.668,0-2.388,9.263-2.245,19.213,0s16.608,4.231,26.688,9.453a4.571,4.571,0,0,0,5.881-1.038,22.616,22.616,0,0,0,6.346-11.992C311.5,200.8,310.952,199.087,309.895,198.143Z" transform="translate(-250.865 -189.645)" fill="url(#linear-gradient)"/>
            </g>
          </g>
          <path id="Path_11" data-name="Path 11" d="M280.216,212.088c-2.228-.6-5.855-1.469-7.544-1.851-9.949-2.245-19.213-2.388-19.213,0,0,2.238,3.15,5.334,3.6,5.668a27.409,27.409,0,0,0,12.05,4.86C274.983,221.577,276.407,218.124,280.216,212.088Z" transform="translate(-251.362 -193.257)" fill="#003f59"/>
        </g>
        <g id="Group_7" data-name="Group 7" transform="translate(0 33.996)">
          <g id="Group_6" data-name="Group 6" transform="translate(0 0.549)">
            <g id="Group_5" data-name="Group 5">
              <path id="Path_12" data-name="Path 12" d="M252.2,250.955c2.907,2.6,13.088,8.5,31.1,8.5,15.3,0,27.928-6.1,27.928-14.15,0-3.37-2.178-6.1-5.692-8.5.445.334,3.6,3.43,3.6,5.668,0,2.388-9.262,2.245-19.213,0s-16.608-4.231-26.688-9.453a4.571,4.571,0,0,0-5.881,1.038A22.619,22.619,0,0,0,251,246.049C250.593,248.3,251.139,250.01,252.2,250.955Z" transform="translate(-250.865 -232.376)" fill="url(#linear-gradient-2)"/>
            </g>
          </g>
          <path id="Path_13" data-name="Path 13" d="M289.837,240.491c2.228.6,5.855,1.469,7.544,1.851,9.95,2.245,19.213,2.388,19.213,0,0-2.238-3.151-5.334-3.6-5.668a27.409,27.409,0,0,0-12.05-4.86C295.07,231,293.646,234.455,289.837,240.491Z" transform="translate(-258.33 -231.697)" fill="#ae0721"/>
        </g>
      </g>
      <g id="Group_9" data-name="Group 9" transform="translate(81.925 50.218)">
        <path id="Path_14" data-name="Path 14" d="M352.2,249.693h6.59v1.724H354.14v2.745h4.042v1.648H354.14v3.2h4.8v1.724H352.2Z" transform="translate(-352.202 -249.526)" fill="#003f59"/>
        <path id="Path_15" data-name="Path 15" d="M365.5,260.736V249.693h1.83l4,5.324c.686.915,1.327,1.784,1.967,2.669l.031-.016c-.031-1.037-.031-2.165-.031-3.34v-4.637h1.876v11.043h-1.83l-4-5.324c-.686-.915-1.327-1.784-1.968-2.669l-.03.015c.03,1.038.03,2.166.03,3.34v4.637Z" transform="translate(-354.75 -249.526)" fill="#003f59"/>
        <path id="Path_16" data-name="Path 16" d="M383.064,249.693h6.589v1.724H385v2.745h4.042v1.648H385v3.2h4.8v1.724h-6.742Z" transform="translate(-358.114 -249.526)" fill="#003f59"/>
        <path id="Path_17" data-name="Path 17" d="M396.382,249.693H399.6a6.534,6.534,0,0,1,3.1.55,2.929,2.929,0,0,1,1.587,2.684,3.017,3.017,0,0,1-2.456,3.035l3.325,4.775h-2.272l-3.081-4.561h-1.479v4.561h-1.937Zm3.477,4.988a3.166,3.166,0,0,0,1.922-.443,1.518,1.518,0,0,0-.229-2.516,4.384,4.384,0,0,0-2.058-.306h-1.175v3.264Z" transform="translate(-360.665 -249.526)" fill="#003f59"/>
        <path id="Path_18" data-name="Path 18" d="M420.464,259.842a7.521,7.521,0,0,1-3.8,1.022,5.58,5.58,0,0,1-5.873-5.658,5.653,5.653,0,0,1,5.934-5.72,6.657,6.657,0,0,1,3.386.884V252.4a5.693,5.693,0,0,0-3.371-1.159,3.951,3.951,0,1,0,.015,7.9,4.132,4.132,0,0,0,1.8-.381v-2.121h-2.2v-1.647h4.1Z" transform="translate(-363.426 -249.486)" fill="#003f59"/>
        <path id="Path_19" data-name="Path 19" d="M428.185,249.693h1.937v11.043h-1.937Z" transform="translate(-366.757 -249.526)" fill="#003f59"/>
        <path id="Path_20" data-name="Path 20" d="M445.8,260.736H443.74l-1.052-2.7h-4.759l-1.067,2.7h-2l4.53-11.043h1.892Zm-7.244-4.286h3.508l-.64-1.662c-.382-.991-.748-1.968-1.1-2.959h-.031c-.366,1.022-.717,1.968-1.1,2.959Z" transform="translate(-368.036 -249.526)" fill="#003f59"/>
      </g>
    </g>
  </g>
</svg>
